<?xml version="1.0" encoding="UTF-8" standalone="no"?>
<svg
   viewBox="0 0 136.82199 177.79153"
   version="1.1"
   id="svg211"
   sodipodi:docname="lts-linux.svg"
   inkscape:version="1.2.2 (b0a8486541, 2022-12-01)"
   xmlns:inkscape="http://www.inkscape.org/namespaces/inkscape"
   xmlns:sodipodi="http://sodipodi.sourceforge.net/DTD/sodipodi-0.dtd"
   xmlns:xlink="http://www.w3.org/1999/xlink"
   xmlns="http://www.w3.org/2000/svg"
   xmlns:svg="http://www.w3.org/2000/svg">
  <sodipodi:namedview
     id="namedview213"
     pagecolor="#ffffff"
     bordercolor="#000000"
     borderopacity="0.25"
     inkscape:showpageshadow="2"
     inkscape:pageopacity="0.0"
     inkscape:pagecheckerboard="0"
     inkscape:deskcolor="#d1d1d1"
     showgrid="false"
     inkscape:zoom="4.9408757"
     inkscape:cx="64.867044"
     inkscape:cy="89.66022"
     inkscape:window-width="2256"
     inkscape:window-height="1435"
     inkscape:window-x="0"
     inkscape:window-y="0"
     inkscape:window-maximized="1"
     inkscape:current-layer="svg211" />
  <defs
     id="defs93">
    <linearGradient
       id="b">
      <stop
         stop-color="#a5a5a5"
         offset="0"
         id="stop2" />
      <stop
         offset="1"
         id="stop4" />
    </linearGradient>
    <linearGradient
       id="p"
       x1="160.36"
       x2="585.08"
       y1="586.87"
       y2="633.04"
       gradientTransform="matrix(0.31234,0,0,0.18977,358.42,392.58)"
       gradientUnits="userSpaceOnUse">
      <stop
         offset="0"
         id="stop7" />
      <stop
         offset=".5"
         id="stop9" />
      <stop
         offset="1"
         id="stop11" />
    </linearGradient>
    <linearGradient
       id="o"
       x1="243.94"
       x2="276.24"
       y1="326.16"
       y2="334.82"
       gradientUnits="userSpaceOnUse"
       gradientTransform="translate(-171.76,-295.22)">
      <stop
         stop-color="#ffe257"
         offset="0"
         id="stop14" />
      <stop
         stop-color="#d7b200"
         offset="1"
         id="stop16" />
    </linearGradient>
    <linearGradient
       id="a">
      <stop
         stop-color="#4a3600"
         stop-opacity=".6576"
         offset="0"
         id="stop19" />
      <stop
         stop-color="#decfa7"
         stop-opacity=".3831"
         offset=".6475"
         id="stop21" />
      <stop
         stop-color="#392a00"
         stop-opacity=".3763"
         offset="1"
         id="stop23" />
    </linearGradient>
    <linearGradient
       id="u"
       x1="212.15"
       x2="278.69"
       y1="362.47"
       y2="341.65"
       gradientUnits="userSpaceOnUse"
       gradientTransform="translate(-171.76,-295.22)">
      <stop
         stop-color="#0000c5"
         offset="0"
         id="stop26"
         style="stop-color:#00c519;stop-opacity:1;" />
      <stop
         stop-color="#00006b"
         offset="1"
         id="stop28"
         style="stop-color:#0c4616;stop-opacity:1;" />
    </linearGradient>
    <linearGradient
       id="t"
       x1="218.65"
       x2="305.21"
       y1="339.97"
       y2="343.03"
       gradientUnits="userSpaceOnUse"
       gradientTransform="translate(-171.76,-295.22)">
      <stop
         stop-color="#0000ab"
         offset="0"
         id="stop31" />
      <stop
         stop-color="#00005c"
         offset="1"
         id="stop33" />
    </linearGradient>
    <linearGradient
       id="s"
       x1="365.03"
       x2="371.75"
       y1="402.32"
       y2="349.14"
       gradientUnits="userSpaceOnUse"
       gradientTransform="translate(-171.76,-295.22)">
      <stop
         stop-color="#000079"
         offset="0"
         id="stop36"
         style="stop-color:#00710d;stop-opacity:1;" />
      <stop
         stop-color="#000079"
         offset="1"
         id="stop38"
         style="stop-color:#02320a;stop-opacity:1;" />
    </linearGradient>
    <linearGradient
       id="r"
       x2="0"
       y1="31.854"
       y2="74.712"
       gradientUnits="userSpaceOnUse"
       gradientTransform="matrix(0.32651769,-0.04634037,0.04634037,0.32651769,-46.553137,53.215947)">
      <stop
         stop-color="#1f593a"
         offset="0"
         id="stop41" />
      <stop
         stop-color="#2fea8f"
         offset="1"
         id="stop43" />
    </linearGradient>
    <linearGradient
       id="q"
       x1="250.19"
       x2="254.26"
       gradientUnits="userSpaceOnUse"
       gradientTransform="translate(-178.50618,-321.21489)">
      <stop
         stop-color="#ffb142"
         offset="0"
         id="stop46" />
      <stop
         stop-color="#c87600"
         offset="1"
         id="stop48" />
    </linearGradient>
    <radialGradient
       id="n"
       cx="414.68"
       cy="-8.8805"
       r="123.55"
       gradientTransform="matrix(-1.8232e-6,0.27968,-0.60927,0,101.73,-39.26)"
       gradientUnits="userSpaceOnUse">
      <stop
         stop-color="#ffb142"
         offset="0"
         id="stop51" />
      <stop
         stop-color="#ffb141"
         offset=".8868"
         id="stop53" />
      <stop
         stop-color="#c87600"
         offset="1"
         id="stop55" />
    </radialGradient>
    <radialGradient
       id="l"
       cx="193.56"
       cy="56.486"
       r="28.884"
       gradientTransform="matrix(0.44378132,-0.05341729,0.05276163,0.43835961,-69.660042,48.274529)"
       gradientUnits="userSpaceOnUse">
      <stop
         stop-opacity=".5415"
         offset="0"
         id="stop58" />
      <stop
         stop-opacity="0"
         offset="1"
         id="stop60" />
    </radialGradient>
    <radialGradient
       id="k"
       cx="180.72"
       cy="38.594"
       r="28.884"
       gradientTransform="matrix(0.11651629,0.25611517,-0.29177708,0.13273474,-0.7790823,-23.472572)"
       gradientUnits="userSpaceOnUse">
      <stop
         stop-color="#fff"
         stop-opacity=".8745"
         offset="0"
         id="stop63" />
      <stop
         stop-color="#fff"
         stop-opacity="0"
         offset="1"
         id="stop65" />
    </radialGradient>
    <radialGradient
       id="j"
       cx="194.08"
       cy="26.293"
       r="28.884"
       gradientTransform="matrix(0.21289764,-0.13173371,0.11184604,0.18075564,-21.53235,89.042331)"
       gradientUnits="userSpaceOnUse">
      <stop
         stop-color="#fff"
         offset="0"
         id="stop68" />
      <stop
         stop-color="#fff"
         stop-opacity="0"
         offset="1"
         id="stop70" />
    </radialGradient>
    <radialGradient
       id="i"
       cx="362.55"
       cy="345.16"
       r="22.631"
       gradientUnits="userSpaceOnUse"
       gradientTransform="matrix(0.77993,-0.11069,0.11069,0.77993,-332.08215,-191.14471)">
      <stop
         stop-color="#4a3600"
         offset="0"
         id="stop73" />
      <stop
         stop-color="#decfa7"
         offset=".6475"
         id="stop75" />
      <stop
         stop-color="#392a00"
         offset="1"
         id="stop77" />
    </radialGradient>
    <radialGradient
       id="h"
       cx="306.47"
       cy="239.14"
       r="22.631"
       gradientTransform="matrix(0.07914978,0.01160168,-0.02172209,0.24391497,3.8045216,21.945249)"
       gradientUnits="userSpaceOnUse">
      <stop
         stop-color="#231a00"
         offset="0"
         id="stop80" />
      <stop
         stop-color="#756331"
         offset=".4544"
         id="stop82" />
      <stop
         stop-color="#2e2200"
         offset="1"
         id="stop84" />
    </radialGradient>
    <radialGradient
       id="m"
       cx="610.46"
       cy="483.45"
       r="167.56"
       gradientTransform="matrix(0,-0.48219,0.4319,-1.2542e-6,-151.97,551.35)"
       gradientUnits="userSpaceOnUse"
       xlink:href="#b" />
    <radialGradient
       id="g"
       cx="265.86"
       cy="293.49"
       r="22.631"
       gradientTransform="matrix(0.10207521,-0.0256576,0.04272382,0.16996378,-20.585737,52.975695)"
       gradientUnits="userSpaceOnUse"
       xlink:href="#a" />
    <radialGradient
       id="f"
       cx="523.34"
       cy="479.28"
       r="22.631"
       gradientTransform="matrix(0.11308221,0.0081146,-0.01255955,0.17504889,-19.242895,52.514597)"
       gradientUnits="userSpaceOnUse"
       xlink:href="#a" />
    <radialGradient
       id="e"
       cx="401.52"
       cy="532.92"
       r="22.631"
       gradientTransform="matrix(0.10048354,0.04094054,-0.12563196,0.30833394,51.36181,-27.935838)"
       gradientUnits="userSpaceOnUse"
       xlink:href="#a" />
    <radialGradient
       id="d"
       cx="371.45"
       cy="647.69"
       r="59.255"
       gradientTransform="matrix(0,-0.74351,-0.66041,0,552.03,582.13)"
       gradientUnits="userSpaceOnUse"
       xlink:href="#b" />
    <radialGradient
       id="c"
       cx="380.26"
       cy="622.49"
       r="59.255"
       gradientTransform="matrix(0,-0.74351,0.66041,0,-364.7,582.13)"
       gradientUnits="userSpaceOnUse"
       xlink:href="#b" />
    <radialGradient
       inkscape:collect="always"
       xlink:href="#b"
       id="radialGradient2871"
       gradientUnits="userSpaceOnUse"
       gradientTransform="matrix(0.35217856,-0.65480869,0.54937338,0.29546621,-422.46014,140.99028)"
       cx="380.26"
       cy="622.49"
       r="59.255" />
  </defs>
  <g
     id="g3236">
    <g
       transform="matrix(0.94454,0,0,1,-14.266179,-254.20889)"
       fill-rule="evenodd"
       id="g101">
      <path
         d="m 81.781,385.54 c -15.668,1.6128 -33.638,14.291 -26.495,17.056 7.143,2.765 27.873,3.9181 31.79,0.69241 2.0127,-1.6576 5.6138,-5.8087 6.0382,-9.704 0.42497,3.8949 4.0155,8.0466 6.0281,9.704 3.9169,3.2257 24.658,2.0724 31.8,-0.69241 7.142,-2.76481 -10.827,-15.443 -26.495,-17.056 -8.0678,0.77761 -10.97,3.4884 -11.333,6.5983 -0.36356,-3.1099 -3.2654,-5.8207 -11.333,-6.5983 z"
         fill="url(#n)"
         stroke="#000000"
         stroke-width="1.5639"
         id="path97"
         style="fill:url(#n)" />
      <path
         d="m 81.784,385.55 c -7.69,0.79161 -15.927,4.249 -21.485,7.8915 8.4173,3.8928 18.709,6.2918 29.865,6.5678 1.4296,-1.8809 2.7102,-4.1871 2.9529,-6.415 0.24081,2.207 1.4914,4.4927 2.902,6.3641 10.973,-0.4646 21.052,-2.9801 29.254,-6.9445 -5.5378,-3.4836 -13.432,-6.7029 -20.823,-7.4638 -8.0678,0.77762 -10.97,3.4884 -11.333,6.5983 -0.36356,-3.1099 -3.2654,-5.8207 -11.333,-6.5983 z"
         fill-opacity="0.3137"
         id="path99" />
    </g>
    <g
       transform="matrix(0.94454,0,0,1,-14.266179,-254.20889)"
       id="g109">
      <path
         d="m 146.28,340.23 a 53.95,53.95 0 0 1 -107.9,0 53.95,53.95 0 1 1 107.9,0 z"
         fill="url(#m)"
         stroke="#000000"
         stroke-linecap="round"
         stroke-width="1.5639"
         id="path103"
         style="fill:url(#m)" />
      <path
         d="m 118.99,367.2 a 26.1535,26.1535 0 1 1 -52.307,0 26.1535,26.1535 0 1 1 52.307,0 z"
         fill="#ffffff"
         stroke="#000000"
         stroke-linecap="round"
         stroke-width="1.6292"
         id="path105" />
      <path
         d="m 144.15,325.23 c 0.10951,1.4027 0.1731,2.8155 0.1731,4.2461 0,29.779 -24.178,53.947 -53.957,53.947 -24.575,0 -45.316,-16.459 -51.819,-38.948 2.1699,27.795 25.426,49.701 53.774,49.701 29.779,0 53.957,-24.168 53.957,-53.947 0,-5.2041 -0.75099,-10.237 -2.1282,-14.999 z"
         fill-opacity="0.3137"
         id="path107" />
    </g>
    <path
       d="m 62.773821,50.115114 c -7.0587,0 -12.792,6.9841 -12.792,15.589 0,8.6049 5.7331,15.589 12.792,15.589 4.1482,0 7.8293,-2.4146 10.166,-6.1503 2.3367,3.7383 6.0258,6.1503 10.176,6.1503 7.0587,0 12.792,-6.9841 12.792,-15.589 0,-8.6049 -5.7331,-15.589 -12.792,-15.589 -4.1494,0 -7.839,2.4127 -10.176,6.1503 -2.3369,-3.7348 -6.0184,-6.1503 -10.166,-6.1503 z"
       fill="#ffffff"
       stroke="#000000"
       stroke-linecap="round"
       stroke-width="1.5834"
       id="path111" />
    <path
       d="m 70.703821,68.455114 a 3.1969,3.3846 0 0 1 -6.3937,0 3.1969,3.3846 0 1 1 6.3937,0 z"
       stroke="#000000"
       stroke-linecap="round"
       stroke-width="1.5834"
       id="path113" />
    <path
       d="m 82.143821,68.455114 a 3.1969,3.3846 0 1 1 -6.3937,0 3.1969,3.3846 0 1 1 6.3937,0 z"
       stroke="#000000"
       stroke-linecap="round"
       stroke-width="1.5834"
       id="path115" />
    <g
       transform="translate(-178.58352,-321.21489)"
       id="g133">
      <path
         d="m 242.47,405.07 c -1.9609,-0.99075 -3.2004,0.0644 -4.1725,2.5344 -0.76018,4.8394 -2.8243,9.9464 0.98904,13.414 -0.28609,4.2207 0.66054,6.4374 2.8435,7.2014 -0.25605,5.95 1.41,5.1022 2.8126,8.685 -0.60751,4.8766 -0.0398,2.0436 0.58723,5.0997 1.2192,6.8901 1.921,6.5604 2.9671,7.7578 0.99506,3.0588 2.534,2.2294 3.6162,1.0818 1.031,-3.9049 2.2105,-4.7167 2.009,-6.8614 2.4601,-1.9402 1.6577,-3.6744 2.5344,-4.6979 2.3063,-5.4456 2.5175,-6.0663 2.658,-9.1177 4.5443,-9.2055 2.8596,-7.9905 2.7817,-10.725 0.99245,-2.6855 2.1822,-7.2596 0.8654,-8.0977 2.9369,-2.5578 1.3008,-2.1951 0.30907,-3.7707 -0.92044,-1.9554 -1.0566,-1.0287 -4.0489,-1.8544 -5.63,2.2775 -9.1451,1.0268 -16.752,-0.64905 z"
         fill="#d2d2d2"
         stroke="#000000"
         id="path117" />
      <path
         d="m 239.78,409.98 c -1.4554,2.0332 -0.59738,4.529 0.37089,7.0469 1.0931,10.261 1.3852,5.3017 2.0399,7.2323 0.0671,3.526 0.96551,4.5905 1.2981,6.3051 2.3151,3.1214 3.2026,14.018 3.338,12.425 0.10038,-2.0632 1.1472,-7.3104 -0.55633,-13.908 0.68083,-1.9763 2.0224,-2.6312 0.37089,-9.2722 1.228,-4.0961 1.8557,-7.1418 1.1127,-7.7887 1.2234,-2.3312 0.87727,-3.7467 -0.37088,-4.6361 -5.4226,0.004 -5.2749,-1.8528 -6.2948,-2.2545 -1.0158,1.0188 -1.1966,0.66773 -1.3084,4.8507 z"
         fill="#b9b9b9"
         id="path119" />
      <path
         d="m 250.35,408.69 c -0.87768,3.5914 -1.9933,7.3017 0,9.4576 -1.0587,4.0381 2.6955,10.342 -1.2981,18.359 0.0472,5.4836 -0.59137,13.024 1.2981,12.981 0.91407,-1.1811 0.35195,-5.5826 1.7179,-17.158 0.4331,-3.028 2.5544,-1.1308 1.2002,-8.1802 1.5053,-2.6226 3.2946,-5.0925 2.4597,-12.863 -1.2043,-2.3362 -2.2586,-5.0474 -5.3779,-2.5962 z"
         fill="#a9a9a9"
         id="path121" />
      <path
         d="m 260.09,406.58 c -3.2499,-1.2829 -2.1315,11.115 -3.065,21.023 -2.7919,4.2378 -3.9756,11.093 -3.8943,17.246 1.6376,-4.9169 3.6224,-8.0976 4.8216,-15.206 2.5421,-2.689 3.2546,-6.8416 3.338,-11.498 -0.0402,-3.6311 1.4711,-11.004 -1.2002,-11.565 z"
         fill="#bababa"
         id="path123" />
      <path
         d="m 238.23,413.76 c -0.33803,1.9075 0.47419,4.0164 1.3412,6.1349 0.6445,5.4558 1.5224,5.5616 2.1465,7.1937 2.0045,0.5901 0.74371,3.5254 1.3503,4.8079 2.3236,2.3312 4.3717,11.444 3.9084,10.133 -0.29572,-1.8145 -0.68047,-6.499 -2.5656,-12.124 -0.0119,-1.7896 0.50195,-2.4808 -1.3662,-8.1478 -0.10973,-3.693 -0.32374,-6.4138 -0.77585,-6.9146 0.18095,-2.1479 0.32207,-3.4637 -0.40468,-4.1323 -2.5158,0.47996 -1.6927,-4.1952 -2.2326,-4.4571 -0.30236,0.98106 -2.0436,3.8346 -1.4015,7.5054 z"
         fill="#a9a9a9"
         id="path125" />
      <path
         d="m 245.8,411.18 c -0.33152,3.4241 -0.81181,6.9818 0.65174,8.7926 -0.55067,3.9423 -2.1734,10.492 0.40876,17.194 0.409,5.0934 0.5074,12.166 1.7509,11.942 0.52163,-1.1868 1.2292,-4.9243 -1.1356,-15.711 0.0771,-2.8571 2.4001,-2.7728 1.021,-9.1949 0.81232,-2.5843 2.1163,-3.9881 1.03,-11.132 -0.95549,-2.0549 -1.8378,-4.4731 -3.7267,-1.8914 z"
         fill="#a9a9a9"
         id="path127" />
      <path
         d="m 257.37,408.44 c -2.706,-1.211 -1.3862,20.302 -3.6741,25.581 -2.3618,4.5007 -4.0428,15.725 -2.7817,16.223 1.3853,-5.2219 3.1955,-7.9024 4.21,-15.452 2.1505,-2.8558 2.3239,-6.6221 2.3945,-11.567 -0.034,-3.8564 2.1112,-14.189 -0.14868,-14.785 z"
         fill="#a2a2a2"
         id="path129" />
      <path
         d="m 241.76,409.84 c -2.3046,1.2442 -8.021,10.234 -8.2858,3.3182 0.41102,-2.3068 1.877,-6.2848 4.8507,-9.2628 4.7373,-4.3278 7.6277,-4.2122 11.283,-5.0164 11.738,-0.31686 11.932,2.7663 15.412,5.0946 2.0049,2.3613 2.7365,4.4199 3.3775,5.8569 0.53562,2.3022 4.8649,12.475 -7.38,0.61386 -9.8487,-5.6161 -14.707,-2.2753 -19.257,-0.60441 z"
         fill="#a9a9a9"
         stroke="#000000"
         id="path131" />
    </g>
    <path
       d="m 63.373821,82.475114 c -1.8498,1.7184 -3.3875,3.1593 -4.9908,6.1186 -2.2381,2.5285 -1.8022,2.219 -2.5463,3.9176 -0.23407,2.6814 1.1468,-0.16222 3.3636,-4.6405 1.3946,-1.103 2.5659,-2.4792 3.6294,-3.5822 l 2.0594,-0.82972 16.55,-1.0906 c 1.7781,1.7439 2.9987,3.9887 4.6181,5.2566 1.3994,2.5928 3.198,6.1536 4.3548,6.685 -0.64162,-1.947 -0.3841,-2.8664 -2.0569,-5.9919 -0.83036,-2.0146 -2.6118,-3.7231 -4.407,-4.8218 -2.695,-2.1741 -2.2566,-2.1048 -3.7313,-2.601 l -12.789,0.0894 z"
       fill="#8a8a8a"
       id="path135" />
    <path
       d="m 64.973821,84.175114 c -1.8498,1.7184 -3.3254,0.97324 -4.9286,3.9325 -2.2381,2.5285 -1.5538,2.0327 -2.2979,3.7313 -0.23407,2.6814 1.3331,-0.59695 3.3636,-3.5847 1.3946,-1.103 2.2556,-1.1626 3.3189,-2.2656 l 2.0594,-0.82972 14.19,-1.2272 c 1.7781,1.7439 0.88711,2.2498 2.5066,3.5176 1.3994,2.5928 4.7506,5.9052 5.9074,6.4366 -0.64162,-1.947 -1.9988,-2.9285 -3.6716,-6.054 -0.83036,-2.0146 -0.43814,-1.6736 -2.2333,-2.7724 -2.695,-2.1741 -2.2566,-2.1048 -3.7313,-2.601 l -12.54,-2.9537 z"
       fill="#9a9a9a"
       id="path137" />
    <path
       d="m 62.693821,80.965114 c -1.8498,1.7184 -3.0522,2.7618 -4.6554,5.7211 -2.2381,2.5285 -1.4296,2.9643 -2.1737,4.6628 -0.23407,2.6814 0.77419,-0.90748 2.991,-5.3857 1.3946,-1.103 2.2306,-2.0818 3.294,-3.1847 l 1.9973,-2.196 16.699,-0.49438 c 1.7781,1.7439 3.8681,3.554 5.4876,4.8218 1.3994,2.5928 2.3285,6.5883 3.4853,7.1197 -0.64162,-1.947 -0.3841,-2.8664 -2.0569,-5.9919 -0.83036,-2.0146 -2.6118,-3.7231 -4.407,-4.8218 -2.695,-2.1741 -2.2566,-2.1048 -3.7313,-2.601 l -12.789,0.0894 z"
       fill="#8c8c8c"
       id="path139" />
    <path
       d="m 73.543821,77.005114 c -4.4562,0 -9.3,4.2966 -9.1062,7.0102 0.1938,2.7136 7.9437,14.02 9.6874,14.02 1.7437,0 8.525,-11.081 8.3312,-14.247 -0.1938,-3.166 -6.0062,-7.0102 -8.9124,-6.7841 z"
       fill-opacity="0.3137"
       fill-rule="evenodd"
       id="path141" />
    <path
       d="m 72.843821,74.285114 c -4.4562,0 -9.3,3.8974 -9.1062,6.3588 0.1938,2.4614 7.9437,12.718 9.6874,12.718 1.7437,0 8.525,-10.051 8.3312,-12.923 -0.1938,-2.872 -6.0062,-6.3588 -8.9125,-6.1537 z"
       fill="url(#q)"
       fill-rule="evenodd"
       stroke="#000000"
       stroke-width="1.5834"
       id="path143"
       style="fill:url(#q)" />
    <g
       transform="matrix(0.94454,0,0,1,-15.536179,-254.20889)"
       fill-rule="evenodd"
       stroke="#000000"
       stroke-width="1.6292"
       id="g149">
      <path
         d="m 135.69,328.16 c -15.677,5.6371 4.615,30.676 -12.323,52.523 -3.1308,4.0382 18.856,0.68126 26.629,-21.696 7.559,-21.762 0.36897,-35.041 -14.306,-30.827 z"
         fill="#ffffff"
         id="path145" />
      <path
         d="m 135.69,328.16 c -15.677,5.6371 13.877,33.276 -12.323,52.523 -7.3726,5.416 18.856,0.68126 26.629,-21.696 7.559,-21.762 0.36897,-35.041 -14.306,-30.827 z"
         fill="url(#d)"
         id="path147"
         style="fill:url(#d)" />
    </g>
    <g
       id="g2968"
       transform="rotate(-18.351402,-49.324071,117.13252)">
      <path
         d="m 43.603917,103.27501 c 10.660901,11.72123 -17.753659,25.39336 -13.357003,52.1125 0.81266,4.93875 -16.195235,-7.44231 -12.630156,-30.72172 3.467296,-22.63923 15.527303,-31.414795 25.987159,-21.39078 z"
         fill="#ffffff"
         id="path173"
         style="fill-rule:evenodd;stroke:#000000;stroke-width:1.58338" />
      <path
         d="M 44.176627,103.5884 C 54.547682,115.56685 0.0934906,144.04146 29.660749,154.46716 30.700824,154.24735 13.54153,147.52306 17.674935,124.33768 21.694863,101.79002 33.96588,93.312022 44.177459,103.58884 Z"
         fill="url(#c)"
         id="path175"
         style="fill:url(#radialGradient2871);fill-rule:evenodd;stroke:#000000;stroke-width:1.58338" />
    </g>
  </g>
</svg>
